<svg version="1.1" id="Icons" xmlns="http://www.w3.org/2000/svg" xmlns:xlink="http://www.w3.org/1999/xlink" 
	 width="300px" height="300px" viewBox="0 0 32 32" xml:space="preserve">
<circle class="path" cx="16" cy="16" r="13"/>
<path class="path" d="M9.5,4.7C13.4,7,16,11.2,16,16"/>
<path class="path" d="M9.5,27.3c0-4.5,2.3-8.9,6.5-11.3"/>
<path class="path" d="M29,16c-3.9,2.2-8.8,2.4-13,0"/>
<path class="path" d="M13.3,3.3C18.8,4.6,23,10,23,16.5c0,0.4,0,0.8,0,1.2"/>
<path class="path" d="M6.4,24.7c-1.7-5.5,0.9-11.8,6.6-15c0.3-0.2,0.7-0.4,1-0.5"/>
<path class="path" d="M28.4,20c-3.9,4.2-10.7,5.1-16.3,1.8c-0.3-0.2-0.7-0.4-1-0.6"/>
</svg>